<svg width="20" height="20" viewBox="0 0 20 20" fill="none" xmlns="http://www.w3.org/2000/svg">
<g id="Group 16">
<path id="Vector" d="M17.903 0H1.04818C0.482164 0 0 0.484212 0 1.07369V2.98947C0 3.57895 0.482164 4.06316 1.04818 4.06316H17.903C18.49 4.06316 18.9512 3.57895 18.9721 2.98947V1.09474C18.9721 0.48421 18.49 0 17.903 0ZM17.903 10.6316H1.04818C0.775656 10.6316 0.503128 10.7368 0.314455 10.9474C0.104818 11.1579 0 11.4105 0 11.7053V13.621C0 14.2105 0.482164 14.6947 1.04818 14.6947H17.903C18.49 14.6947 18.9512 14.2316 18.9721 13.621V11.7053C18.9512 11.0947 18.49 10.6316 17.903 10.6316ZM10.5447 15.9368H1.04818C0.775656 15.9368 0.503128 16.0421 0.314455 16.2526C0.125782 16.4632 0 16.7158 0 17.0105V18.9263C0 19.5158 0.482164 20 1.04818 20H10.5238C11.1107 20 11.5719 19.5158 11.5719 18.9474V17.0316C11.5929 16.4 11.1317 15.9158 10.5447 15.9368ZM18.9721 5.30526H1.04818C0.775656 5.30526 0.503128 5.41052 0.314455 5.62105C0.125782 5.83158 0 6.08421 0 6.37895V8.29474C0 8.88421 0.482164 9.36842 1.04818 9.36842H18.9512C19.5381 9.36842 19.9993 8.88421 19.9993 8.29474V6.37895C20.0203 5.78947 19.5381 5.32631 18.9721 5.30526Z" fill="#00C3F7"/>
</g>
</svg>
